<?xml version="1.0" encoding="utf-8"?>
<!-- Generator: Adobe Illustrator 16.0.0, SVG Export Plug-In . SVG Version: 6.00 Build 0)  -->
<!DOCTYPE svg PUBLIC "-//W3C//DTD SVG 1.1//EN" "http://www.w3.org/Graphics/SVG/1.1/DTD/svg11.dtd">
<svg version="1.1" id="Layer_4" xmlns="http://www.w3.org/2000/svg" xmlns:xlink="http://www.w3.org/1999/xlink" x="0px" y="0px"
	 width="331.405px" height="47.016px" viewBox="0 0 331.405 47.016" enable-background="new 0 0 331.405 47.016"
	 xml:space="preserve">
<g>
	<path fill="#F1F2F2" d="M0,47.016h65.891V0H0V47.016z M9.344,15.958c0.117-0.428,0.395-0.783,0.777-1.002
		c2.59-1.488,5.812-3.339,11.703-3.339h0.242c5.889,0,9.111,1.851,11.695,3.337l0.172,0.097c2.662,1.493,4.959,2.784,10.014,2.808
		c5.051-0.023,7.346-1.312,10.006-2.806l0.178-0.1c0.25-0.141,0.531-0.216,0.816-0.216c0.598,0,1.15,0.322,1.445,0.84
		c0.451,0.795,0.172,1.811-0.623,2.262c-2.59,1.487-5.814,3.339-11.691,3.339l-0.066-0.001h-0.061l-0.129,0.001
		c-5.885,0-9.107-1.85-11.695-3.335l-0.174-0.097c-2.658-1.495-4.955-2.785-10.006-2.809c-5.061,0.023-7.359,1.316-10.023,2.813
		l-0.16,0.091c-0.25,0.142-0.533,0.217-0.818,0.217c-0.598,0-1.15-0.322-1.445-0.84C9.281,16.833,9.225,16.386,9.344,15.958z
		 M9.344,30.18c0.117-0.428,0.395-0.783,0.777-1.004c2.59-1.486,5.812-3.336,11.697-3.336h0.254c5.883,0,9.105,1.85,11.689,3.336
		l0.172,0.096c2.662,1.494,4.959,2.785,10.014,2.807c5.057-0.021,7.354-1.312,10.014-2.809l0.17-0.094
		c0.25-0.143,0.533-0.217,0.818-0.217c0.596,0,1.148,0.32,1.443,0.84c0.451,0.795,0.172,1.809-0.623,2.262
		c-2.586,1.488-5.805,3.338-11.699,3.338h-0.242c-5.889,0-9.113-1.85-11.701-3.334l-0.176-0.1
		c-2.658-1.492-4.955-2.781-10.004-2.805c-5.059,0.023-7.357,1.314-10.02,2.811l-0.164,0.092c-0.25,0.143-0.533,0.217-0.818,0.217
		c-0.598,0-1.15-0.322-1.445-0.84C9.281,31.055,9.225,30.606,9.344,30.18z"/>
	<path fill="#F1F2F2" d="M106.148,6.177c-0.383-0.816-0.928-1.361-1.908-1.361h-0.109c-0.98,0-1.525,0.545-1.908,1.361
		L85.928,41.493c-0.162,0.326-0.217,0.654-0.217,0.871c0,0.654,0.6,1.199,1.307,1.199c0.654,0,1.092-0.381,1.363-1.035l4.469-9.865
		h22.508l4.47,9.811c0.273,0.598,0.764,1.09,1.418,1.09c0.762,0,1.361-0.6,1.361-1.309c0-0.271-0.055-0.545-0.217-0.873
		L106.148,6.177z M94.049,30.102L104.131,8.03l10.027,22.072H94.049z"/>
	<path fill="#F1F2F2" d="M164.558,27.049c6.432-0.871,11.174-4.523,11.174-10.9v-0.108c0-2.725-1.092-5.286-2.889-7.085
		c-2.289-2.289-6.051-3.761-10.736-3.761h-14.605c-0.764,0-1.418,0.654-1.418,1.417v35.535c0,0.764,0.654,1.416,1.418,1.416
		c0.762,0,1.416-0.652,1.416-1.416V27.54h12.48l11.717,15.26c0.328,0.438,0.709,0.764,1.254,0.764c0.764,0,1.471-0.709,1.471-1.473
		c0-0.326-0.162-0.652-0.436-0.98L164.558,27.049z M148.917,24.979V7.812h13.025c6.922,0,10.953,3.215,10.953,8.337v0.109
		c0,5.505-4.74,8.72-11.117,8.72H148.917z"/>
	<path fill="#F1F2F2" d="M290.31,5.032h-0.271c-0.6,0-1.09,0.328-1.418,0.817l-14.877,21.909L258.864,5.85
		c-0.381-0.489-0.816-0.817-1.416-0.817h-0.273c-0.764,0-1.416,0.654-1.416,1.417v35.752c0,0.762,0.6,1.361,1.361,1.361
		c0.764,0,1.363-0.6,1.363-1.361V10.21l14.006,20.382c0.326,0.49,0.709,0.709,1.199,0.709s0.873-0.219,1.199-0.709l14.006-20.382
		v31.937c0,0.764,0.654,1.416,1.416,1.416c0.764,0,1.418-0.652,1.418-1.416V6.449C291.728,5.687,291.073,5.032,290.31,5.032z"/>
	<path fill="#F1F2F2" d="M330.099,40.729h-23.49V25.417h20.766c0.707,0,1.307-0.602,1.307-1.31c0-0.708-0.6-1.308-1.307-1.308
		h-20.766V7.812h23.217c0.709,0,1.309-0.601,1.309-1.309s-0.6-1.309-1.309-1.309h-24.633c-0.764,0-1.418,0.654-1.418,1.417v35.316
		c0,0.764,0.654,1.416,1.418,1.416h24.906c0.707,0,1.307-0.6,1.307-1.307C331.405,41.329,330.806,40.729,330.099,40.729z"/>
	<path fill="#F1F2F2" d="M210.989,6.504c0-0.708-0.6-1.309-1.309-1.309h-27.25c-0.709,0-1.307,0.601-1.307,1.309
		s0.598,1.309,1.307,1.309h12.207v34.334c0,0.764,0.654,1.416,1.418,1.416s1.416-0.652,1.416-1.416V7.812h12.209
		C210.39,7.812,210.989,7.212,210.989,6.504z"/>
	<path fill="#F1F2F2" d="M230.927,6.177c-0.383-0.816-0.928-1.361-1.908-1.361h-0.109c-0.98,0-1.525,0.545-1.908,1.361
		l-16.295,35.316c-0.162,0.326-0.217,0.654-0.217,0.871c0,0.654,0.6,1.199,1.307,1.199c0.654,0,1.09-0.381,1.363-1.035l4.469-9.865
		h22.508l4.469,9.811c0.273,0.598,0.764,1.09,1.418,1.09c0.762,0,1.361-0.6,1.361-1.309c0-0.271-0.055-0.545-0.217-0.873
		L230.927,6.177z M218.827,30.102L228.909,8.03l10.027,22.072H218.827z"/>
	<path fill="#F1F2F2" d="M132.567,4.978c-0.764,0-1.418,0.653-1.418,1.418v35.751c0,0.764,0.654,1.416,1.418,1.416
		c0.762,0,1.416-0.652,1.416-1.416V6.396C133.983,5.631,133.329,4.978,132.567,4.978z"/>
</g>
</svg>
