<?xml version="1.0" encoding="utf-8"?>
<!-- Generator: Adobe Illustrator 16.0.0, SVG Export Plug-In . SVG Version: 6.00 Build 0)  -->
<!DOCTYPE svg PUBLIC "-//W3C//DTD SVG 1.1//EN" "http://www.w3.org/Graphics/SVG/1.1/DTD/svg11.dtd">
<svg version="1.1" id="Layer_1" xmlns="http://www.w3.org/2000/svg" xmlns:xlink="http://www.w3.org/1999/xlink" x="0px" y="0px"
	 width="212.218px" height="110.171px" viewBox="0 0 212.218 110.171" enable-background="new 0 0 212.218 110.171"
	 xml:space="preserve">
<path fill="none" d="M101.119,29.849c0.725,3.881,2.827,6.402,6.234,7.839c2.784,1.173,5.727,1.441,8.71,1.254
	c5.942-0.372,10.149-3.354,12.661-8.689c2.908-6.18,2.966-12.446,0.186-18.685c-2.561-5.745-6.936-9.376-13.07-10.824
	c-4.892-1.154-9.764-0.926-14.582,0.415c-5.029,1.399-9.091,4.233-12.179,8.447c-2.771,3.783-4.382,8.049-5.229,12.629
	c-0.103,0.553-0.18,1.111-0.269,1.667c0.321-0.297,0.443-0.629,0.556-0.964c0.827-2.433,1.891-4.758,3.295-6.911
	c2.195-3.363,5.001-6.023,8.847-7.417c1.408-0.51,2.855-0.881,4.661-0.794c-0.475,0.192-0.683,0.307-0.906,0.363
	c-4.312,1.073-7.521,3.601-9.721,7.424c-1.928,3.349-2.559,7.027-2.666,10.833c-0.166,5.896,2.217,10.614,6.619,14.404
	c2.076,1.787,4.383,3.216,6.892,4.306c0.701,0.305,1.18,0.745,1.542,1.409c0.767,1.403,1.585,2.777,2.385,4.162
	c0.764,1.322,1.531,2.645,2.297,3.966c0.049-0.024,0.099-0.049,0.147-0.073c-0.874-2.854-1.748-5.709-2.611-8.529
	c-0.229-0.091-0.372-0.162-0.524-0.205c-1.265-0.358-2.599-0.551-3.672-1.396c-1.629-1.284-3.393-2.443-4.828-3.919
	c-3.973-4.085-5.851-8.998-5.176-14.744c0.796-6.77,6.508-14.415,16.454-13.814c8.047,0.486,13.592,8.698,10.719,16.184
	c-1.299,3.387-3.667,5.736-7.413,6.237c-3.857,0.516-6.893-0.888-8.955-4.25C101.484,30.111,101.404,30.075,101.119,29.849z
	 M177.219,109.568c0-8.429,0-16.752,0-25.074c0.111-0.019,0.224-0.038,0.335-0.057c2.305,8.388,4.609,16.774,6.901,25.114
	c2.015,0,3.871,0,5.729,0c0-14.904,0-29.714,0-44.541c-1.984,0-3.877,0-5.886,0c0,1.488,0,2.882,0,4.275c0,1.399,0,2.798,0,4.198
	c0,1.398,0,2.798,0,4.197c-0.001,1.399-0.001,2.799-0.001,4.198c-0.001,1.399,0.005,2.799-0.002,4.197
	c-0.007,1.372,0.038,2.747-0.026,4.115c-0.118,0.011-0.236,0.021-0.354,0.032c-2.311-8.411-4.62-16.821-6.932-25.236
	c-1.972,0-3.831,0-5.761,0c0,14.884,0,29.694,0,44.58C173.188,109.568,175.089,109.568,177.219,109.568z M81.815,90.802
	c1.144,6.304,2.275,12.534,3.4,18.737c2.249,0,4.337,0,6.548,0c-0.72-3.684-1.422-7.242-2.111-10.803
	c-0.689-3.562-1.366-7.126-2.046-10.677c1.582-1.302,2.446-2.938,2.944-4.793c0.866-3.225,0.922-6.486,0.302-9.744
	c-1.01-5.303-3.739-7.931-9.081-8.46c-2.651-0.263-5.346-0.077-8.022-0.086c-0.058,0-0.117,0.098-0.175,0.151
	c-0.26,2.271-0.14,43.572,0.135,44.434c2.056,0,4.115,0,6.336,0c0-6.292,0-12.504,0-18.76C80.68,90.802,81.151,90.802,81.815,90.802
	z M151.879,88.156c1.82-2.013,2.189-2.513,2.739-4.293c1.174-3.797,1.176-7.642,0.238-11.48c-1.032-4.225-3.877-6.825-8.21-7.238
	c-2.775-0.264-5.587-0.155-8.382-0.207c-0.109-0.002-0.221,0.071-0.402,0.134c0,14.802,0,29.611,0,44.479c2.162,0,4.254,0,6.469,0
	c0-6.277,0-12.458,0-18.717c0.623,0,1.122,0,1.752,0c1.131,6.244,2.261,12.478,3.393,18.727c2.215,0,4.309,0,6.54,0
	C154.618,102.327,153.241,95.203,151.879,88.156z M43.257,92.857c0.078,0.365,0.169,0.593,0.169,0.821
	c0.009,2.519,0.03,5.037-0.016,7.556c-0.011,0.622-0.185,1.267-0.407,1.855c-0.29,0.768-0.9,1.223-1.754,1.223
	c-0.901,0.001-1.554-0.472-1.833-1.293c-0.227-0.668-0.374-1.399-0.375-2.104C39.017,92,39.013,83.084,39.043,74.169
	c0.002-0.737,0.203-1.504,0.463-2.2c0.29-0.774,0.957-1.138,1.81-1.12c0.82,0.018,1.412,0.453,1.661,1.164
	c0.259,0.739,0.413,1.547,0.44,2.33c0.063,1.797,0.018,3.598,0.025,5.396c0.001,0.383,0.042,0.766,0.067,1.173
	c2.192,0,4.25,0,6.365,0c0.034-0.344,0.084-0.613,0.084-0.883c0.004-2.079,0.104-4.165-0.04-6.234
	c-0.096-1.374-0.394-2.778-0.865-4.073c-1.105-3.04-3.323-4.835-6.577-5.197c-3.79-0.422-7.206,0.873-8.929,4.753
	c-0.688,1.551-1.068,3.184-1.07,4.883c-0.011,9.075-0.015,18.151,0.002,27.227c0.003,1.613,0.382,3.16,1.025,4.65
	c1.942,4.5,7.888,5.38,11.063,2.305c0.215-0.208,0.461-0.384,0.748-0.62c0.298,0.679,0.551,1.255,0.844,1.922
	c1.012,0,2.004,0.008,2.996-0.005c0.23-0.003,0.458-0.07,0.714-0.112c0-7.381,0-14.71,0-22.056c-3.028,0-5.964,0-8.949,0
	c0,1.822,0,3.555,0,5.387C41.714,92.857,42.421,92.857,43.257,92.857z M207.587,107.716c0.303,0.671,0.576,1.276,0.819,1.815
	c1.318,0,2.532,0,3.725,0c0-7.415,0-14.718,0-22.062c-3.013,0-5.945,0-8.933,0c0,1.819,0,3.552,0,5.342
	c0.853,0.058,1.627,0.11,2.405,0.163c0.046,0.267,0.096,0.42,0.096,0.574c0.006,2.64,0.015,5.279-0.003,7.919
	c-0.003,0.392-0.104,0.794-0.22,1.172c-0.332,1.072-1.036,1.667-1.936,1.683c-0.943,0.016-1.733-0.596-2.002-1.74
	c-0.189-0.809-0.256-1.661-0.263-2.494c-0.027-3.48-0.012-6.96-0.012-10.439c0-4.88-0.023-9.76,0.021-14.64
	c0.009-0.982,0.17-1.995,0.458-2.934c0.248-0.808,0.937-1.266,1.862-1.227c0.867,0.037,1.452,0.506,1.722,1.269
	c0.221,0.627,0.35,1.316,0.366,1.982c0.048,1.879,0.014,3.759,0.02,5.639c0.001,0.384,0.037,0.768,0.059,1.174
	c2.193,0,4.252,0,6.347,0c0.036-0.227,0.081-0.378,0.082-0.529c0.004-2.319,0.046-4.641-0.013-6.959
	c-0.048-1.913-0.618-3.705-1.629-5.334c-0.752-1.213-1.762-2.17-3.06-2.794c-5.154-2.481-10.778,0.071-12.215,5.596
	c-0.298,1.147-0.457,2.363-0.464,3.549c-0.056,8.799-0.062,17.599-0.07,26.397c-0.002,1.734,0.27,3.432,0.967,5.033
	c1.971,4.527,7.532,5.724,11.174,2.414C207.092,108.103,207.312,107.939,207.587,107.716z M122.862,109.598
	c0-3.068-0.003-6.016,0.001-8.962c0.005-2.935-0.02-5.87,0.016-8.826c0.559-0.046,0.913-0.078,1.267-0.105
	c4.755-0.366,8.174-3.082,9.52-7.645c0.991-3.362,1.035-6.782,0.329-10.201c-1.013-4.899-4.101-8.325-9.532-8.794
	c-2.578-0.223-5.187-0.088-7.781-0.104c-0.099-0.001-0.198,0.112-0.285,0.164c-0.279,2.637-0.143,43.588,0.162,44.473
	C118.572,109.598,120.603,109.598,122.862,109.598z M112.769,76.3c-0.047-0.953-0.05-1.785-0.137-2.607
	c-0.256-2.417-0.806-4.753-2.444-6.646c-3.857-4.456-11.704-3.098-14.077,2.433c-1.225,2.854-1.392,5.81-0.63,8.81
	c0.626,2.468,1.789,4.704,3.143,6.835c1.415,2.227,2.944,4.381,4.347,6.613c0.997,1.586,1.965,3.205,2.773,4.893
	c0.929,1.936,0.775,3.969,0.03,5.952c-0.335,0.892-0.993,1.475-1.96,1.542c-1.008,0.071-1.771-0.41-2.254-1.297
	c-0.172-0.314-0.354-0.642-0.428-0.985c-0.197-0.935-0.37-1.877-0.491-2.824c-0.1-0.78-0.113-1.573-0.171-2.476
	c-2.154,0.21-4.202,0.409-6.333,0.617c0,3.148,0.125,6.135,1.538,8.888c1.093,2.131,2.898,3.404,5.233,3.816
	c1.21,0.213,2.471,0.303,3.696,0.232c4.024-0.231,6.582-2.397,7.597-6.306c1.14-4.391,0.654-8.596-1.68-12.489
	c-1.766-2.944-3.744-5.762-5.564-8.675c-1.056-1.689-2.091-3.408-2.944-5.203c-0.84-1.766-0.715-3.667-0.106-5.505
	c0.267-0.806,0.839-1.393,1.738-1.45c0.918-0.06,1.548,0.507,1.842,1.282c0.351,0.923,0.556,1.909,0.741,2.884
	c0.132,0.691,0.127,1.41,0.194,2.253C108.535,76.69,110.551,76.505,112.769,76.3z M54.896,64.986c0,14.935,0,29.739,0,44.571
	c4.99,0,9.882,0,14.839,0c0-2.222,0-4.357,0-6.664c-2.813,0-5.548,0-8.244,0c-0.284-1.522-0.221-11.358,0.095-12.349
	c1.882,0,3.819,0,5.812,0c0-2.418,0-4.68,0-7.112c-2.008,0-3.983,0-5.994,0c0-3.986,0-7.8,0-11.79c2.812,0,5.544,0,8.332,0
	c0-2.313,0-4.449,0-6.656C64.761,64.986,59.866,64.986,54.896,64.986z M6.167,71.657c0,12.738,0,25.309,0,37.95
	c2.255,0.041,4.343,0.077,6.551-0.011c0-12.741,0-25.28,0-37.995c2.095,0,4.069,0,6.085,0c0-2.313,0-4.449,0-6.608
	c-6.3,0-12.516,0-18.803,0c0,2.219,0,4.357,0,6.664C2.05,71.657,4.029,71.657,6.167,71.657z M159.831,64.977
	c0,14.946,0,29.746,0,44.648c2.187,0.019,4.274,0.051,6.36-0.013c0-14.99,0-29.79,0-44.636
	C164.031,64.977,161.97,64.977,159.831,64.977z M21.542,64.975c0,14.945,0,29.753,0,44.601c2.156,0,4.217,0,6.371,0
	c0-14.907,0-29.745,0-44.601C25.75,64.975,23.687,64.975,21.542,64.975z"/>
<path fill-rule="evenodd" clip-rule="evenodd" fill="#F1F2F2" d="M101.119,29.849c0.285,0.227,0.365,0.263,0.403,0.325
	c2.062,3.362,5.098,4.765,8.955,4.25c3.746-0.5,6.114-2.85,7.413-6.237c2.873-7.486-2.672-15.698-10.719-16.184
	c-9.945-0.601-15.658,7.044-16.454,13.814c-0.675,5.746,1.203,10.659,5.176,14.744c1.435,1.476,3.199,2.635,4.828,3.919
	c1.073,0.845,2.407,1.037,3.672,1.396c0.152,0.043,0.295,0.114,0.524,0.205c0.863,2.82,1.737,5.675,2.611,8.529
	c-0.049,0.024-0.099,0.049-0.147,0.073c-0.766-1.321-1.533-2.644-2.297-3.966c-0.8-1.385-1.618-2.759-2.385-4.162
	c-0.362-0.664-0.841-1.104-1.542-1.409c-2.509-1.09-4.816-2.519-6.892-4.306c-4.402-3.791-6.784-8.509-6.619-14.404
	c0.106-3.807,0.738-7.484,2.666-10.833c2.201-3.823,5.409-6.351,9.721-7.424c0.223-0.056,0.432-0.17,0.906-0.363
	C99.135,7.728,97.688,8.1,96.28,8.609c-3.845,1.394-6.652,4.054-8.847,7.417c-1.405,2.153-2.469,4.478-3.295,6.911
	c-0.113,0.334-0.235,0.667-0.556,0.964c0.089-0.555,0.166-1.113,0.269-1.667c0.847-4.58,2.457-8.846,5.229-12.629
	c3.088-4.214,7.15-7.048,12.179-8.447c4.818-1.341,9.69-1.569,14.582-0.415c6.135,1.448,10.51,5.079,13.07,10.824
	c2.78,6.239,2.723,12.505-0.186,18.685c-2.512,5.335-6.719,8.317-12.661,8.689c-2.983,0.187-5.926-0.081-8.71-1.254
	C103.946,36.25,101.844,33.73,101.119,29.849z"/>
<path fill-rule="evenodd" clip-rule="evenodd" fill="#F1F2F2" d="M177.219,109.568c-2.13,0-4.03,0-5.995,0
	c0-14.886,0-29.696,0-44.58c1.93,0,3.789,0,5.761,0c2.312,8.415,4.621,16.825,6.932,25.236c0.117-0.011,0.235-0.021,0.354-0.032
	c0.064-1.368,0.02-2.743,0.026-4.115c0.007-1.398,0.001-2.798,0.002-4.197c0-1.399,0-2.799,0.001-4.198c0-1.399,0-2.799,0-4.197
	c0-1.4,0-2.799,0-4.198c0-1.394,0-2.787,0-4.275c2.009,0,3.901,0,5.886,0c0,14.827,0,29.637,0,44.541c-1.858,0-3.715,0-5.729,0
	c-2.292-8.34-4.597-16.727-6.901-25.114c-0.111,0.019-0.224,0.038-0.335,0.057C177.219,92.816,177.219,101.14,177.219,109.568z"/>
<path fill-rule="evenodd" clip-rule="evenodd" fill="#F1F2F2" d="M81.815,90.802c-0.664,0-1.135,0-1.77,0c0,6.256,0,12.468,0,18.76
	c-2.221,0-4.28,0-6.336,0c-0.274-0.861-0.395-42.162-0.135-44.434c0.058-0.054,0.117-0.151,0.175-0.151
	c2.676,0.009,5.371-0.177,8.022,0.086c5.341,0.529,8.07,3.157,9.081,8.46c0.62,3.258,0.564,6.52-0.302,9.744
	c-0.499,1.854-1.362,3.491-2.944,4.793c0.68,3.551,1.357,7.115,2.046,10.677c0.689,3.561,1.391,7.119,2.111,10.803
	c-2.211,0-4.3,0-6.548,0C84.09,103.336,82.959,97.105,81.815,90.802z M80.099,84.627c2.04,0.188,3.579-0.685,4.188-2.55
	c0.378-1.162,0.586-2.416,0.636-3.639c0.067-1.633-0.066-3.282-0.804-4.802c-0.787-1.621-2.324-2.385-4.02-2.004
	C80.099,75.967,80.099,80.302,80.099,84.627z"/>
<path fill-rule="evenodd" clip-rule="evenodd" fill="#F1F2F2" d="M151.879,88.156c1.362,7.047,2.739,14.171,4.137,21.403
	c-2.231,0-4.325,0-6.54,0c-1.132-6.249-2.262-12.482-3.393-18.727c-0.63,0-1.129,0-1.752,0c0,6.259,0,12.439,0,18.717
	c-2.215,0-4.307,0-6.469,0c0-14.867,0-29.677,0-44.479c0.182-0.062,0.293-0.136,0.402-0.134c2.795,0.052,5.606-0.057,8.382,0.207
	c4.333,0.413,7.178,3.014,8.21,7.238c0.938,3.839,0.936,7.684-0.238,11.48C154.068,85.644,153.699,86.144,151.879,88.156z
	 M144.431,71.536c-0.279,1.76-0.182,12.34,0.109,13.139c2.05,0.013,3.372-0.749,4.006-2.562c0.938-2.682,0.924-5.414-0.008-8.104
	C147.979,72.398,146.408,71.241,144.431,71.536z"/>
<path fill-rule="evenodd" clip-rule="evenodd" fill="#F1F2F2" d="M43.257,92.857c-0.836,0-1.543,0-2.334,0c0-1.832,0-3.564,0-5.387
	c2.985,0,5.921,0,8.949,0c0,7.346,0,14.675,0,22.056c-0.256,0.042-0.484,0.109-0.714,0.112c-0.992,0.013-1.984,0.005-2.996,0.005
	c-0.293-0.667-0.546-1.243-0.844-1.922c-0.287,0.236-0.533,0.412-0.748,0.62c-3.175,3.075-9.121,2.195-11.063-2.305
	c-0.643-1.49-1.022-3.037-1.025-4.65c-0.017-9.075-0.013-18.151-0.002-27.227c0.002-1.699,0.382-3.332,1.07-4.883
	c1.723-3.88,5.139-5.175,8.929-4.753c3.254,0.362,5.471,2.157,6.577,5.197c0.471,1.295,0.77,2.699,0.865,4.073
	c0.144,2.069,0.044,4.155,0.04,6.234c0,0.27-0.05,0.539-0.084,0.883c-2.115,0-4.173,0-6.365,0c-0.024-0.407-0.065-0.79-0.067-1.173
	c-0.008-1.799,0.038-3.6-0.025-5.396c-0.027-0.783-0.181-1.591-0.44-2.33c-0.249-0.711-0.841-1.146-1.661-1.164
	c-0.853-0.018-1.52,0.346-1.81,1.12c-0.261,0.696-0.461,1.463-0.463,2.2c-0.03,8.915-0.026,17.831-0.001,26.746
	c0.002,0.705,0.148,1.437,0.375,2.104c0.279,0.821,0.931,1.294,1.833,1.293c0.854,0,1.464-0.455,1.754-1.223
	c0.222-0.589,0.396-1.233,0.407-1.855c0.046-2.519,0.025-5.037,0.016-7.556C43.426,93.45,43.335,93.223,43.257,92.857z"/>
<path fill-rule="evenodd" clip-rule="evenodd" fill="#F1F2F2" d="M207.587,107.716c-0.274,0.224-0.495,0.387-0.696,0.569
	c-3.642,3.31-9.203,2.113-11.174-2.414c-0.697-1.602-0.969-3.299-0.967-5.033c0.008-8.799,0.015-17.599,0.07-26.397
	c0.007-1.186,0.166-2.401,0.464-3.549c1.437-5.524,7.061-8.077,12.215-5.596c1.298,0.624,2.308,1.581,3.06,2.794
	c1.011,1.629,1.581,3.421,1.629,5.334c0.059,2.318,0.017,4.64,0.013,6.959c-0.001,0.151-0.046,0.303-0.082,0.529
	c-2.095,0-4.153,0-6.347,0c-0.021-0.406-0.058-0.79-0.059-1.174c-0.006-1.88,0.028-3.76-0.02-5.639
	c-0.017-0.666-0.146-1.355-0.366-1.982c-0.27-0.763-0.854-1.231-1.722-1.269c-0.926-0.039-1.614,0.419-1.862,1.227
	c-0.288,0.938-0.449,1.951-0.458,2.934c-0.044,4.88-0.021,9.76-0.021,14.64c0,3.479-0.016,6.959,0.012,10.439
	c0.007,0.833,0.073,1.686,0.263,2.494c0.269,1.145,1.059,1.756,2.002,1.74c0.899-0.016,1.604-0.61,1.936-1.683
	c0.116-0.378,0.217-0.78,0.22-1.172c0.018-2.64,0.009-5.279,0.003-7.919c0-0.154-0.05-0.308-0.096-0.574
	c-0.778-0.053-1.553-0.105-2.405-0.163c0-1.79,0-3.522,0-5.342c2.987,0,5.92,0,8.933,0c0,7.344,0,14.646,0,22.062
	c-1.192,0-2.406,0-3.725,0C208.163,108.992,207.89,108.387,207.587,107.716z"/>
<path fill-rule="evenodd" clip-rule="evenodd" fill="#F1F2F2" d="M122.862,109.598c-2.26,0-4.29,0-6.305,0
	c-0.305-0.885-0.441-41.836-0.162-44.473c0.087-0.052,0.187-0.165,0.285-0.164c2.595,0.016,5.203-0.119,7.781,0.104
	c5.432,0.469,8.52,3.895,9.532,8.794c0.706,3.419,0.662,6.839-0.329,10.201c-1.346,4.562-4.765,7.278-9.52,7.645
	c-0.354,0.027-0.708,0.06-1.267,0.105c-0.035,2.956-0.011,5.892-0.016,8.826C122.859,103.582,122.862,106.529,122.862,109.598z
	 M122.955,71.653c0,4.478,0,8.873,0,13.253c2.528,0.425,4.12-0.558,4.599-2.886c0.453-2.207,0.414-4.453,0.071-6.664
	C127.204,72.641,125.945,71.677,122.955,71.653z"/>
<path fill-rule="evenodd" clip-rule="evenodd" fill="#F1F2F2" d="M112.769,76.3c-2.218,0.205-4.233,0.391-6.349,0.586
	c-0.067-0.843-0.062-1.562-0.194-2.253c-0.186-0.975-0.391-1.961-0.741-2.884c-0.294-0.775-0.924-1.342-1.842-1.282
	c-0.899,0.058-1.472,0.645-1.738,1.45c-0.608,1.838-0.733,3.739,0.106,5.505c0.854,1.795,1.889,3.514,2.944,5.203
	c1.82,2.913,3.799,5.73,5.564,8.675c2.334,3.894,2.819,8.099,1.68,12.489c-1.015,3.908-3.572,6.074-7.597,6.306
	c-1.226,0.07-2.486-0.02-3.696-0.232c-2.335-0.412-4.14-1.686-5.233-3.816c-1.413-2.753-1.538-5.739-1.538-8.888
	c2.132-0.208,4.179-0.407,6.333-0.617c0.059,0.902,0.071,1.695,0.171,2.476c0.121,0.947,0.294,1.89,0.491,2.824
	c0.073,0.344,0.256,0.671,0.428,0.985c0.483,0.887,1.246,1.368,2.254,1.297c0.967-0.067,1.625-0.65,1.96-1.542
	c0.745-1.983,0.898-4.017-0.03-5.952c-0.809-1.688-1.776-3.307-2.773-4.893c-1.403-2.232-2.932-4.387-4.347-6.613
	c-1.354-2.131-2.516-4.367-3.143-6.835c-0.761-3-0.594-5.956,0.63-8.81c2.374-5.53,10.22-6.889,14.077-2.433
	c1.639,1.894,2.188,4.229,2.444,6.646C112.719,74.515,112.722,75.347,112.769,76.3z"/>
<path fill-rule="evenodd" clip-rule="evenodd" fill="#F1F2F2" d="M54.896,64.986c4.971,0,9.865,0,14.84,0c0,2.207,0,4.343,0,6.656
	c-2.788,0-5.52,0-8.332,0c0,3.99,0,7.804,0,11.79c2.011,0,3.985,0,5.994,0c0,2.433,0,4.694,0,7.112c-1.992,0-3.929,0-5.812,0
	c-0.316,0.99-0.379,10.826-0.095,12.349c2.696,0,5.431,0,8.244,0c0,2.307,0,4.442,0,6.664c-4.957,0-9.849,0-14.839,0
	C54.896,94.726,54.896,79.921,54.896,64.986z"/>
<path fill-rule="evenodd" clip-rule="evenodd" fill="#F1F2F2" d="M6.167,71.657c-2.137,0-4.116,0-6.167,0c0-2.307,0-4.445,0-6.664
	c6.288,0,12.503,0,18.803,0c0,2.159,0,4.295,0,6.608c-2.016,0-3.991,0-6.085,0c0,12.715,0,25.254,0,37.995
	c-2.208,0.088-4.296,0.052-6.551,0.011C6.167,96.966,6.167,84.396,6.167,71.657z"/>
<path fill-rule="evenodd" clip-rule="evenodd" fill="#F1F2F2" d="M159.831,64.977c2.139,0,4.2,0,6.36,0c0,14.846,0,29.646,0,44.636
	c-2.086,0.063-4.174,0.031-6.36,0.013C159.831,94.723,159.831,79.923,159.831,64.977z"/>
<path fill-rule="evenodd" clip-rule="evenodd" fill="#F1F2F2" d="M21.542,64.975c2.145,0,4.208,0,6.371,0
	c0,14.855,0,29.693,0,44.601c-2.154,0-4.215,0-6.371,0C21.542,94.728,21.542,79.92,21.542,64.975z"/>
<path fill-rule="evenodd" clip-rule="evenodd" fill="none" d="M80.099,84.627c0-4.325,0-8.66,0-12.994
	c1.696-0.381,3.232,0.383,4.02,2.004c0.737,1.52,0.871,3.169,0.804,4.802c-0.05,1.223-0.257,2.477-0.636,3.639
	C83.678,83.942,82.139,84.814,80.099,84.627z"/>
<path fill-rule="evenodd" clip-rule="evenodd" fill="none" d="M144.431,71.536c1.978-0.295,3.549,0.862,4.107,2.474
	c0.932,2.689,0.945,5.422,0.008,8.104c-0.634,1.812-1.956,2.574-4.006,2.562C144.249,83.876,144.151,73.296,144.431,71.536z"/>
<path fill-rule="evenodd" clip-rule="evenodd" fill="none" d="M122.955,71.653c2.99,0.023,4.249,0.987,4.67,3.703
	c0.343,2.211,0.382,4.457-0.071,6.664c-0.479,2.328-2.07,3.311-4.599,2.886C122.955,80.526,122.955,76.131,122.955,71.653z"/>
</svg>
