<?xml version="1.0" encoding="utf-8"?>
<!-- Generator: Adobe Illustrator 16.0.0, SVG Export Plug-In . SVG Version: 6.00 Build 0)  -->
<!DOCTYPE svg PUBLIC "-//W3C//DTD SVG 1.1//EN" "http://www.w3.org/Graphics/SVG/1.1/DTD/svg11.dtd">
<svg version="1.1" id="Layer_1" xmlns="http://www.w3.org/2000/svg" xmlns:xlink="http://www.w3.org/1999/xlink" x="0px" y="0px"
	 width="1920px" height="640px" viewBox="0 0 1920 640" enable-background="new 0 0 1920 640" xml:space="preserve">
<line fill="none" stroke="#AAC8D9" stroke-miterlimit="10" x1="320" y1="0.353" x2="960.5" y2="641.354"/>
<line fill="none" stroke="#AAC8D9" stroke-miterlimit="10" x1="960.5" y1="641.354" x2="1600.5" y2="0.853"/>
<line fill="none" stroke="#AAC8D9" stroke-miterlimit="10" x1="640.058" y1="0.853" x2="959.5" y2="321.354"/>
<line fill="none" stroke="#AAC8D9" stroke-miterlimit="10" x1="959.5" y1="321.354" x2="1280" y2="0.353"/>
<line fill="none" stroke="#AAC8D9" stroke-miterlimit="10" x1="960" y1="0.353" x2="800" y2="161.325"/>
<line fill="none" stroke="#AAC8D9" stroke-miterlimit="10" x1="960" y1="0.353" x2="1120" y2="161.325"/>
<line fill="none" stroke="#AAC8D9" stroke-miterlimit="10" x1="479.5" y1="0.353" x2="960.5" y2="480.354"/>
<line fill="none" stroke="#AAC8D9" stroke-miterlimit="10" x1="960.5" y1="480.354" x2="1440" y2="1.353"/>
<line fill="none" stroke="#AAC8D9" stroke-miterlimit="10" x1="1440" y1="161.478" x2="1600" y2="321.354"/>
<line fill="none" stroke="#AAC8D9" stroke-miterlimit="10" x1="160" y1="480.354" x2="0" y2="641.354"/>
<line fill="none" stroke="#AAC8D9" stroke-miterlimit="10" x1="1759.5" y1="320.353" x2="1920" y2="480.354"/>
<line fill="none" stroke="#AAC8D9" stroke-miterlimit="10" x1="1600" y1="320.5" x2="1760" y2="320.5"/>
<line fill="none" stroke="#AAC8D9" stroke-miterlimit="10" x1="1759.5" y1="1.353" x2="1760" y2="161.853"/>
<line fill="none" stroke="#AAC8D9" stroke-miterlimit="10" x1="159.5" y1="1.353" x2="160" y2="480.354"/>
<line fill="none" stroke="#AAC8D9" stroke-miterlimit="10" x1="1599.5" y1="161" x2="1599.5" y2="321"/>
<line fill="none" stroke="#AAC8D9" stroke-miterlimit="10" x1="1599" y1="161.5" x2="1920" y2="161.5"/>
</svg>
