<?xml version="1.0" encoding="utf-8"?>
<!-- Generator: Adobe Illustrator 16.0.0, SVG Export Plug-In . SVG Version: 6.00 Build 0)  -->
<!DOCTYPE svg PUBLIC "-//W3C//DTD SVG 1.1//EN" "http://www.w3.org/Graphics/SVG/1.1/DTD/svg11.dtd">
<svg version="1.1" id="Layer_1" xmlns="http://www.w3.org/2000/svg" xmlns:xlink="http://www.w3.org/1999/xlink" x="0px" y="0px"
	 width="1920px" height="640px" viewBox="0 0 1920 640" enable-background="new 0 0 1920 640" xml:space="preserve">
<line fill="none" stroke="#8FB6D0" stroke-miterlimit="10" x1="640" y1="482" x2="-1" y2="482"/>
<line fill="none" stroke="#8FB6D0" stroke-miterlimit="10" x1="479" y1="322" x2="-1" y2="322"/>
<line fill="none" stroke="#8FB6D0" stroke-miterlimit="10" x1="319" y1="163" x2="0" y2="163"/>
<line fill="none" stroke="#8FB6D0" stroke-miterlimit="10" x1="1599" y1="163" x2="1920" y2="163"/>
<line fill="none" stroke="#8FB6D0" stroke-miterlimit="10" x1="1439" y1="322" x2="1920" y2="322"/>
<line fill="none" stroke="#8FB6D0" stroke-miterlimit="10" x1="1279" y1="483" x2="1920" y2="483"/>
<line fill="none" stroke="#8FB6D0" stroke-miterlimit="10" x1="320" y1="1.353" x2="1600.5" y2="1.853"/>
<line fill="none" stroke="#8FB6D0" stroke-miterlimit="10" x1="320" y1="1.353" x2="960.5" y2="642.354"/>
<line fill="none" stroke="#8FB6D0" stroke-miterlimit="10" x1="960.5" y1="642.354" x2="1600.5" y2="1.853"/>
<line fill="none" stroke="#8FB6D0" stroke-miterlimit="10" x1="640.058" y1="1.853" x2="959.5" y2="322.353"/>
<line fill="none" stroke="#8FB6D0" stroke-miterlimit="10" x1="959.5" y1="322.353" x2="1280" y2="1.353"/>
<line fill="none" stroke="#8FB6D0" stroke-miterlimit="10" x1="960" y1="1.353" x2="800" y2="162.324"/>
<line fill="none" stroke="#8FB6D0" stroke-miterlimit="10" x1="960" y1="1.353" x2="1120" y2="162.324"/>
<line fill="none" stroke="#8FB6D0" stroke-miterlimit="10" x1="479.5" y1="1.353" x2="960.5" y2="481.353"/>
<line fill="none" stroke="#8FB6D0" stroke-miterlimit="10" x1="960.5" y1="481.353" x2="1440" y2="2.353"/>
<line fill="none" stroke="#8FB6D0" stroke-miterlimit="10" x1="1440" y1="162.478" x2="1600" y2="322.353"/>
<line fill="none" stroke="#8FB6D0" stroke-miterlimit="10" x1="160" y1="481.353" x2="0" y2="642.354"/>
<line fill="none" stroke="#8FB6D0" stroke-miterlimit="10" x1="1599.5" y1="481.353" x2="1760" y2="641.354"/>
<line fill="none" stroke="#8FB6D0" stroke-miterlimit="10" x1="1759.5" y1="0" x2="1760" y2="641.354"/>
<line fill="none" stroke="#8FB6D0" stroke-miterlimit="10" x1="159.5" y1="0" x2="160" y2="481.353"/>
<line fill="none" stroke="#8FB6D0" stroke-miterlimit="10" x1="1599" y1="162" x2="1599" y2="481"/>
<line fill="none" stroke="#8FB6D0" stroke-miterlimit="10" x1="1439" y1="321" x2="1439" y2="642"/>
<line fill="none" stroke="#8FB6D0" stroke-miterlimit="10" x1="1279" y1="482" x2="1279" y2="642"/>
<line fill="none" stroke="#8FB6D0" stroke-miterlimit="10" x1="319" y1="162" x2="319" y2="642"/>
<line fill="none" stroke="#8FB6D0" stroke-miterlimit="10" x1="479" y1="321" x2="479" y2="641"/>
<line fill="none" stroke="#8FB6D0" stroke-miterlimit="10" x1="640" y1="481.353" x2="640.25" y2="642.354"/>
</svg>
