<?xml version="1.0" encoding="utf-8"?>
<!-- Generator: Adobe Illustrator 16.0.0, SVG Export Plug-In . SVG Version: 6.00 Build 0)  -->
<!DOCTYPE svg PUBLIC "-//W3C//DTD SVG 1.1//EN" "http://www.w3.org/Graphics/SVG/1.1/DTD/svg11.dtd">
<svg version="1.1" id="Layer_1" xmlns="http://www.w3.org/2000/svg" xmlns:xlink="http://www.w3.org/1999/xlink" x="0px" y="0px"
	 width="1920px" height="480px" viewBox="0 0 1920 480" enable-background="new 0 0 1920 480" xml:space="preserve">
<line fill="none" stroke="#F1F2F2" stroke-miterlimit="10" x1="480.115" y1="321.353" x2="1440" y2="321.853"/>
<line fill="none" stroke="#F1F2F2" stroke-miterlimit="10" x1="160" y1="321.5" x2="321" y2="321.5"/>
<line fill="none" stroke="#F1F2F2" stroke-miterlimit="10" x1="479" y1="161.5" x2="640" y2="161.5"/>
<line fill="none" stroke="#F1F2F2" stroke-miterlimit="10" x1="1760" y1="161.5" x2="1919" y2="161.5"/>
<path fill="none" stroke="#F1F2F2" stroke-miterlimit="10" d="M1600.5,482.853"/>
<path fill="none" stroke="#F1F2F2" stroke-miterlimit="10" d="M320,482.353"/>
<line fill="none" stroke="#F1F2F2" stroke-miterlimit="10" x1="159.5" y1="1.353" x2="0" y2="161.353"/>
<line fill="none" stroke="#F1F2F2" stroke-miterlimit="10" x1="319.5" y1="161.353" x2="160" y2="321.853"/>
<line fill="none" stroke="#F1F2F2" stroke-miterlimit="10" x1="1760" y1="1.353" x2="1918.876" y2="161.353"/>
<line fill="none" stroke="#F1F2F2" stroke-miterlimit="10" x1="1599.5" y1="1.353" x2="1760" y2="161.353"/>
<line fill="none" stroke="#F1F2F2" stroke-miterlimit="10" x1="1439.5" y1="1.353" x2="1759.5" y2="321.353"/>
<line fill="none" stroke="#F1F2F2" stroke-miterlimit="10" x1="1280" y1="1.353" x2="1440" y2="162.448"/>
<line fill="none" stroke="#F1F2F2" stroke-miterlimit="10" x1="1440" y1="162.448" x2="1280" y2="321.353"/>
<line fill="none" stroke="#F1F2F2" stroke-miterlimit="10" x1="800" y1="161.353" x2="960" y2="321.353"/>
<line fill="none" stroke="#F1F2F2" stroke-miterlimit="10" x1="479.5" y1="161.353" x2="321.123" y2="321.853"/>
<line fill="none" stroke="#F1F2F2" stroke-miterlimit="10" x1="640.058" y1="161.353" x2="800.163" y2="1.353"/>
<line fill="none" stroke="#F1F2F2" stroke-miterlimit="10" x1="320" y1="482.353" x2="480.115" y2="321.353"/>
<line fill="none" stroke="#F1F2F2" stroke-miterlimit="10" x1="480.115" y1="321.353" x2="640.058" y2="482.853"/>
<line fill="none" stroke="#F1F2F2" stroke-miterlimit="10" x1="640.058" y1="482.853" x2="800" y2="321.353"/>
<line fill="none" stroke="#F1F2F2" stroke-miterlimit="10" x1="800" y1="321.353" x2="960" y2="482.353"/>
<line fill="none" stroke="#F1F2F2" stroke-miterlimit="10" x1="960" y1="482.353" x2="1120" y2="321.353"/>
<line fill="none" stroke="#F1F2F2" stroke-miterlimit="10" x1="1120" y1="321.353" x2="1280" y2="482.353"/>
<line fill="none" stroke="#F1F2F2" stroke-miterlimit="10" x1="1280" y1="482.353" x2="1440" y2="321.853"/>
<line fill="none" stroke="#F1F2F2" stroke-miterlimit="10" x1="1440" y1="321.853" x2="1600.5" y2="482.853"/>
<line fill="none" stroke="#F1F2F2" stroke-miterlimit="10" x1="319.5" y1="-640" x2="319.5" y2="161"/>
<line fill="none" stroke="#F1F2F2" stroke-miterlimit="10" x1="479.5" y1="-640" x2="479.5" y2="161"/>
<line fill="none" stroke="#F1F2F2" stroke-miterlimit="10" x1="1759.5" y1="321.353" x2="1760" y2="1122.353"/>
<line fill="none" stroke="#F1F2F2" stroke-miterlimit="10" x1="800.163" y1="1.353" x2="800" y2="161.353"/>
<line fill="none" stroke="#F1F2F2" stroke-miterlimit="10" x1="159.5" y1="322.353" x2="160" y2="962.353"/>
<line fill="none" stroke="#F1F2F2" stroke-miterlimit="10" x1="1759.5" y1="321.353" x2="1918.876" y2="161.353"/>
<line fill="none" stroke="#F1F2F2" stroke-miterlimit="10" x1="1119.5" y1="2" x2="1119.5" y2="321"/>
</svg>
