<?xml version="1.0" encoding="utf-8"?>
<!-- Generator: Adobe Illustrator 16.0.0, SVG Export Plug-In . SVG Version: 6.00 Build 0)  -->
<!DOCTYPE svg PUBLIC "-//W3C//DTD SVG 1.1//EN" "http://www.w3.org/Graphics/SVG/1.1/DTD/svg11.dtd">
<svg version="1.1" id="Layer_1" xmlns="http://www.w3.org/2000/svg" xmlns:xlink="http://www.w3.org/1999/xlink" x="0px" y="0px"
	 width="1920px" height="480px" viewBox="0 0 1920 480" enable-background="new 0 0 1920 480" xml:space="preserve">
<line fill="none" stroke="#F1F2F2" stroke-miterlimit="10" x1="160.5" y1="-0.647" x2="1" y2="159.353"/>
<line fill="none" stroke="#F1F2F2" stroke-miterlimit="10" x1="320.5" y1="159.353" x2="161" y2="319.854"/>
<line fill="none" stroke="#F1F2F2" stroke-miterlimit="10" x1="1761" y1="-0.647" x2="1919.876" y2="159.353"/>
<line fill="none" stroke="#F1F2F2" stroke-miterlimit="10" x1="1600.5" y1="-0.647" x2="1761" y2="159.353"/>
<line fill="none" stroke="#F1F2F2" stroke-miterlimit="10" x1="1440.5" y1="-0.647" x2="1760.5" y2="319.354"/>
<line fill="none" stroke="#F1F2F2" stroke-miterlimit="10" x1="1281" y1="-0.647" x2="1441" y2="160.448"/>
<line fill="none" stroke="#F1F2F2" stroke-miterlimit="10" x1="1441" y1="160.448" x2="1281" y2="319.354"/>
<line fill="none" stroke="#F1F2F2" stroke-miterlimit="10" x1="801" y1="159.353" x2="961" y2="319.354"/>
<line fill="none" stroke="#F1F2F2" stroke-miterlimit="10" x1="480.5" y1="159.353" x2="322.123" y2="319.854"/>
<line fill="none" stroke="#F1F2F2" stroke-miterlimit="10" x1="641.058" y1="159.353" x2="801.163" y2="-0.647"/>
<line fill="none" stroke="#F1F2F2" stroke-miterlimit="10" x1="321" y1="480.354" x2="481.115" y2="319.354"/>
<line fill="none" stroke="#F1F2F2" stroke-miterlimit="10" x1="481.115" y1="319.354" x2="641.058" y2="480.854"/>
<line fill="none" stroke="#F1F2F2" stroke-miterlimit="10" x1="641.058" y1="480.854" x2="801" y2="319.354"/>
<line fill="none" stroke="#F1F2F2" stroke-miterlimit="10" x1="801" y1="319.354" x2="961" y2="480.354"/>
<line fill="none" stroke="#F1F2F2" stroke-miterlimit="10" x1="961" y1="480.354" x2="1121" y2="319.354"/>
<line fill="none" stroke="#F1F2F2" stroke-miterlimit="10" x1="1121" y1="319.354" x2="1281" y2="480.354"/>
<line fill="none" stroke="#F1F2F2" stroke-miterlimit="10" x1="1281" y1="480.354" x2="1441" y2="319.854"/>
<line fill="none" stroke="#F1F2F2" stroke-miterlimit="10" x1="1441" y1="319.854" x2="1601.5" y2="480.854"/>
<line fill="none" stroke="#F1F2F2" stroke-miterlimit="10" x1="801.163" y1="-0.647" x2="960" y2="159.353"/>
<line fill="none" stroke="#F1F2F2" stroke-miterlimit="10" x1="960" y1="159.353" x2="1121" y2="1.347"/>
<line fill="none" stroke="#F1F2F2" stroke-miterlimit="10" x1="1760.5" y1="319.354" x2="1919.876" y2="159.353"/>
<line fill="none" stroke="#F1F2F2" stroke-miterlimit="10" x1="801.163" y1="-0.647" x2="801" y2="159.353"/>
<line fill="none" stroke="#F1F2F2" stroke-miterlimit="10" x1="1120.5" y1="0" x2="1120.5" y2="319"/>
<line fill="none" stroke="#F1F2F2" stroke-miterlimit="10" x1="320.5" y1="160" x2="320.5" y2="-1"/>
<line fill="none" stroke="#F1F2F2" stroke-miterlimit="10" x1="480.5" y1="160" x2="480.5" y2="-1"/>
<line fill="none" stroke="#F1F2F2" stroke-miterlimit="10" x1="160.5" y1="320" x2="160.5" y2="480"/>
<line fill="none" stroke="#F1F2F2" stroke-miterlimit="10" x1="1760.5" y1="319" x2="1760.5" y2="480"/>
<line fill="none" stroke="#F1F2F2" stroke-miterlimit="10" x1="481.115" y1="319.354" x2="1441" y2="319.854"/>
<line fill="none" stroke="#F1F2F2" stroke-miterlimit="10" x1="161" y1="319.5" x2="322" y2="319.5"/>
<line fill="none" stroke="#F1F2F2" stroke-miterlimit="10" x1="480" y1="159.5" x2="641" y2="159.5"/>
<line fill="none" stroke="#F1F2F2" stroke-miterlimit="10" x1="1761" y1="159.5" x2="1920" y2="159.5"/>
<line fill="none" stroke="#F1F2F2" stroke-miterlimit="10" x1="321" y1="480.354" x2="1601.5" y2="480.854"/>
</svg>
