<?xml version="1.0" encoding="utf-8"?>
<!-- Generator: Adobe Illustrator 16.0.0, SVG Export Plug-In . SVG Version: 6.00 Build 0)  -->
<!DOCTYPE svg PUBLIC "-//W3C//DTD SVG 1.1//EN" "http://www.w3.org/Graphics/SVG/1.1/DTD/svg11.dtd">
<svg version="1.1" id="Layer_1" xmlns="http://www.w3.org/2000/svg" xmlns:xlink="http://www.w3.org/1999/xlink" x="0px" y="0px"
	 width="1920px" height="640px" viewBox="0 0 1920 640" enable-background="new 0 0 1920 640" xml:space="preserve">
<line fill="none" stroke="#F1F2F2" stroke-miterlimit="10" x1="480.115" y1="319.975" x2="800" y2="0.353"/>
<line fill="none" stroke="#F1F2F2" stroke-miterlimit="10" x1="479.115" y1="318.975" x2="802.154" y2="642.347"/>
<line fill="none" stroke="#F1F2F2" stroke-miterlimit="10" x1="1120" y1="0.353" x2="1440" y2="319.975"/>
<line fill="none" stroke="#F1F2F2" stroke-miterlimit="10" x1="1440" y1="319.975" x2="1120" y2="642.347"/>
<line fill="none" stroke="#F1F2F2" stroke-miterlimit="10" x1="159.5" y1="159.853" x2="0" y2="0.353"/>
<line fill="none" stroke="#F1F2F2" stroke-miterlimit="10" x1="320" y1="160.164" x2="480" y2="-0.647"/>
<line fill="none" stroke="#F1F2F2" stroke-miterlimit="10" x1="159.5" y1="480.354" x2="320" y2="640.854"/>
<line fill="none" stroke="#F1F2F2" stroke-miterlimit="10" x1="1600" y1="160.353" x2="1760.02" y2="-0.127"/>
<line fill="none" stroke="#F1F2F2" stroke-miterlimit="10" x1="1760" y1="320.353" x2="1920" y2="479.854"/>
<line fill="none" stroke="#F1F2F2" stroke-miterlimit="10" x1="1439.5" y1="640.354" x2="1600.5" y2="479.854"/>
<line fill="none" stroke="#F1F2F2" stroke-miterlimit="10" x1="159.5" y1="0" x2="159.5" y2="640"/>
<line fill="none" stroke="#F1F2F2" stroke-miterlimit="10" x1="319.5" y1="-1" x2="319.5" y2="640"/>
<line fill="none" stroke="#F1F2F2" stroke-miterlimit="10" x1="479.5" y1="-1" x2="479.5" y2="640"/>
<line fill="none" stroke="#F1F2F2" stroke-miterlimit="10" x1="640.058" y1="0.353" x2="640" y2="159.853"/>
<line fill="none" stroke="#F1F2F2" stroke-miterlimit="10" x1="640" y1="479.854" x2="640.058" y2="640.854"/>
<line fill="none" stroke="#F1F2F2" stroke-miterlimit="10" x1="1279.5" y1="-1" x2="1279.5" y2="160"/>
<line fill="none" stroke="#F1F2F2" stroke-miterlimit="10" x1="1279.5" y1="479.854" x2="1280" y2="640.354"/>
<line fill="none" stroke="#F1F2F2" stroke-miterlimit="10" x1="1439.5" y1="0" x2="1439.5" y2="640"/>
<line fill="none" stroke="#F1F2F2" stroke-miterlimit="10" x1="1599.5" y1="-1" x2="1599.5" y2="640"/>
<line fill="none" stroke="#F1F2F2" stroke-miterlimit="10" x1="1759.5" y1="-1" x2="1759.5" y2="640"/>
</svg>
