<?xml version="1.0" encoding="utf-8"?>
<!-- Generator: Adobe Illustrator 16.0.0, SVG Export Plug-In . SVG Version: 6.00 Build 0)  -->
<!DOCTYPE svg PUBLIC "-//W3C//DTD SVG 1.1//EN" "http://www.w3.org/Graphics/SVG/1.1/DTD/svg11.dtd">
<svg version="1.1" id="Layer_1" xmlns="http://www.w3.org/2000/svg" xmlns:xlink="http://www.w3.org/1999/xlink" x="0px" y="0px"
	 width="648px" height="432px" viewBox="0 0 648 432" enable-background="new 0 0 648 432" xml:space="preserve">
<g id="Layer_2">
	<polyline fill="none" stroke="#F1F2F2" stroke-miterlimit="10" points="270,432 54,216 270,0 	"/>
	<polyline fill="none" stroke="#F1F2F2" stroke-miterlimit="10" points="378,0 594,216 378,432 	"/>
	<line fill="none" stroke="#F1F2F2" stroke-miterlimit="10" x1="54" y1="0" x2="54" y2="432"/>
	<line fill="none" stroke="#F1F2F2" stroke-miterlimit="10" x1="108" y1="0" x2="108" y2="162"/>
	<line fill="none" stroke="#F1F2F2" stroke-miterlimit="10" x1="108" y1="270" x2="108" y2="432"/>
	<line fill="none" stroke="#F1F2F2" stroke-miterlimit="10" x1="162" y1="324" x2="162" y2="432"/>
	<line fill="none" stroke="#F1F2F2" stroke-miterlimit="10" x1="162" y1="0" x2="162" y2="108"/>
	<line fill="none" stroke="#F1F2F2" stroke-miterlimit="10" x1="216" y1="0" x2="216" y2="54"/>
	<line fill="none" stroke="#F1F2F2" stroke-miterlimit="10" x1="216" y1="378" x2="216" y2="432"/>
	<line fill="none" stroke="#F1F2F2" stroke-miterlimit="10" x1="432" y1="0" x2="432" y2="54"/>
	<line fill="none" stroke="#F1F2F2" stroke-miterlimit="10" x1="432" y1="378" x2="432" y2="432"/>
	<line fill="none" stroke="#F1F2F2" stroke-miterlimit="10" x1="486" y1="432" x2="486" y2="324"/>
	<line fill="none" stroke="#F1F2F2" stroke-miterlimit="10" x1="486" y1="0" x2="486" y2="108"/>
	<line fill="none" stroke="#F1F2F2" stroke-miterlimit="10" x1="540" y1="0" x2="540" y2="162"/>
	<line fill="none" stroke="#F1F2F2" stroke-miterlimit="10" x1="540" y1="270" x2="540" y2="432"/>
	<line fill="none" stroke="#F1F2F2" stroke-miterlimit="10" x1="594" y1="432" x2="594" y2="0"/>
</g>
</svg>
