<?xml version="1.0" encoding="utf-8"?>
<!-- Generator: Adobe Illustrator 16.0.0, SVG Export Plug-In . SVG Version: 6.00 Build 0)  -->
<!DOCTYPE svg PUBLIC "-//W3C//DTD SVG 1.1//EN" "http://www.w3.org/Graphics/SVG/1.1/DTD/svg11.dtd">
<svg version="1.1" id="Layer_2" xmlns="http://www.w3.org/2000/svg" xmlns:xlink="http://www.w3.org/1999/xlink" x="0px" y="0px"
	 width="1335px" height="75px" viewBox="0 0 1335 75" enable-background="new 0 0 1335 75" xml:space="preserve">
<path fill="none" stroke="#F1F2F2" stroke-width="3" stroke-miterlimit="10" d="M47.11,21.604
	c-0.302,9.567-8.255,17.337-17.85,17.143c-9.663-0.195-17.338-8.187-17.143-17.85s8.187-17.338,17.85-17.143
	C39.631,3.949,47.306,11.94,47.11,21.604"/>
<circle fill="#F1F2F2" cx="29.614" cy="21.25" r="10"/>
<path fill="none" stroke="#F1F2F2" stroke-width="3" stroke-miterlimit="10" d="M47.781,22.25h379.336
	c-0.14-10,7.449-17.995,17.042-18.244c9.662-0.251,17.698,7.252,17.948,16.914c0.251,9.662-7.377,17.635-17.039,17.886
	c-9.662,0.252-17.693-7.02-17.944-16.681"/>
<circle fill="#F1F2F2" cx="444.614" cy="21.25" r="10"/>
<path fill="none" stroke="#F1F2F2" stroke-width="2" stroke-miterlimit="10" d="M461.781,21.75h380.336
	c-0.157-9.571,7.416-17.726,17.01-17.993c9.661-0.27,17.711,7.344,17.981,17.005c0.27,9.661-7.346,17.711-17.007,17.98
	s-17.708-7.253-17.979-16.914"/>
<circle fill="#F1F2F2" cx="859.614" cy="21.25" r="10"/>
<circle fill="#F1F2F2" cx="1274.614" cy="21.25" r="10"/>
<path fill="none" stroke="#F1F2F2" stroke-width="3" stroke-miterlimit="10" d="M876.781,22.25h380.337
	c-0.173-10,7.389-17.959,16.98-18.242c9.661-0.285,17.723,7.19,18.007,16.852c0.285,9.661-7.315,17.661-16.976,17.946
	c-9.661,0.283-17.721-7.021-18.005-16.681"/>
<!-- <text transform="matrix(1 0 0 1 2.2812 66.75)" fill="#F1F2F2" font-family="'MyriadPro-Regular'" font-size="22">Home</text>
<text transform="matrix(1 0 0 1 395.7812 66.75)" fill="#F1F2F2" font-family="'MyriadPro-Regular'" font-size="22">Experience</text>
<text transform="matrix(1 0 0 1 823.7812 66.75)" fill="#F1F2F2" font-family="'MyriadPro-Regular'" font-size="22">Projects</text>
<text transform="matrix(1 0 0 1 1218.7812 66.75)" fill="#F1F2F2" font-family="'MyriadPro-Regular'" font-size="22">Get In Touch</text> -->
</svg>
